
<svg xmlns="http://www.w3.org/2000/svg" version="1.1" xmlns:xlink="http://www.w3.org/1999/xlink" preserveAspectRatio="none" x="0px" y="0px" width="537px" height="537px" viewBox="0 0 537 537">
<defs>
<g id="Layer5_0_FILL">
<path fill="#000000" stroke="none" d="
M 2.5 230.1
Q 31.85 263 72.3 284.8 75.45 247 83.15 211.45 60.15 200.45 21.15 162 7.2 194.15 2.5 230.1
M 1.2 242
Q 0 255 0 268.55 0 368 62.9 441.35 66.95 415.15 72 389.95 68.4 340.65 71.55 294.6 31.15 273.55 1.2 242
M 59.6 99.6
Q 59.35 99.8 59.2 100.05 38.55 125.15 25.1 153.25 62.85 190.75 85.2 202.35 97.9 148.4 121.3 99.65 84.8 93.4 59.6 99.6
M 155.4 24.1
Q 115.85 42.5 82.25 75.1 80.45 76.85 78.7 78.6 73.75 83.55 69.15 88.6 93.25 85.4 125.45 91.2 144.75 52.7 170.9 17.5 163 20.5 155.4 24.1
M 187.05 11.9
Q 186.65 12 186.3 12.1 154.5 52.7 132.15 97.9 132 98.3 131.75 98.7 131.3 99.6 130.9 100.5 130.85 100.6 130.8 100.7 105.65 152.2 92.8 209.65
L 92.75 209.9
Q 83.85 249.6 80.75 292.2
L 80.75 292.3
Q 78.5 323.5 79.35 356.3 94.5 291.85 116.85 233.3 166.95 102 253.1 0.4 218.4 2.15 187.05 11.9
M 268.55 0
Q 266.9 0 265.25 0.05 176.3 102.65 125.25 236.5 97.6 308.95 81.05 390.6 81 391.1 80.85 391.55 75.1 420.2 70.65 450.1 74.55 454.25 78.7 458.4 107.85 487.55 141.5 505.95 126 201.05 310.9 3.05 290.35 0 268.55 0
M 511.45 285.4
Q 524.5 276.8 537.1 266.7 536.75 200.45 508.3 145.8 472.85 160.95 414.85 164.95 407.05 232.1 406.35 300.55 446 300.7 511.45 285.4
M 515.85 293.3
L 515.7 293.4
Q 464.7 326.7 406.45 338.05 407.8 414.4 417.8 492.35 439.05 477.75 458.4 458.4 533.65 383.2 536.95 278.25 526.65 286.2 516.05 293.15 515.95 293.2 515.9 293.25
L 515.85 293.3
M 406.3 309.55
Q 406.2 319.2 406.35 328.9 448.65 320.4 487.05 299.9 438.4 309.7 406.3 309.55
M 406.3 160.4
Q 406.3 160.15 406.35 159.9 412.95 104.2 424.45 49.45 377.85 15.4 321.6 4.8 133.45 202.95 150.8 510.75 204.2 537.05 268.55 537.05 347.15 537.1 409.45 497.85 398.6 415.3 397.4 334.5
L 397.4 334.2
Q 397.15 319.6 397.3 305.05 397.3 304.95 397.3 304.85
L 397.3 304.8
Q 397.8 231.85 406.3 160.4
M 458.4 78.6
Q 445.8 66 432.4 55.45 422.15 105.25 415.95 155.85 470.3 151.9 503.95 137.8 486 106.2 458.4 78.6 Z"/>
</g>
</defs>

<g transform="matrix( 1, 0, 0, 1, 0,0) ">
<use xlink:href="#Layer5_0_FILL"/>
</g>
</svg>
