
<svg xmlns="http://www.w3.org/2000/svg" version="1.1" xmlns:xlink="http://www.w3.org/1999/xlink" preserveAspectRatio="none" x="0px" y="0px" width="537px" height="537px" viewBox="0 0 537 537">
<defs>
<g id="Layer6_0_FILL">
<path fill="#000000" stroke="none" d="
M 450.05 466.45
Q 454.25 462.55 458.4 458.4 486.45 430.4 504.55 398.3 480 310.55 410.75 254.7 452.7 345.5 450.05 466.45
M 116.65 490.5
Q 182.95 537.1 268.55 537.05 322.2 537.05 368.25 518.8 371.45 336.1 279.5 201 174.3 323.5 116.65 490.5
M 94.95 348.25
Q 85.75 168 223.75 3.4 141 16.35 78.65 78.6 0 157.35 0 268.55 0 367.35 62.05 440.45 76.3 392.85 94.95 348.25
M 268.55 0
Q 252.45 0 237.05 1.65 102.5 157.95 103.45 328.55 185.75 143.15 344.5 10.2 308.6 0 268.55 0
M 394.4 241.85
L 394.3 241.6
Q 367.75 191.25 326.3 151 305.15 171.7 285.6 194 379.5 330.45 377.3 515 411.15 499.95 440.8 474.7 445.5 339.4 394.4 241.85
M 430.35 53.8
Q 395.35 26.75 354.75 13.35 186.55 152.5 103.8 350.35 103.7 350.7 103.55 351 83.85 398.05 69.1 448.4 73.7 453.5 78.65 458.4 93.3 473.05 109.05 484.95 168.2 314.95 276.4 190.85 276.4 190.8 276.45 190.8 276.45 190.75 276.5 190.7 276.6 190.6 276.7 190.5 298.8 165.1 323.05 141.65 323.1 141.6 323.2 141.55 323.25 141.475 323.3 141.4 372.55 93.6 430.35 53.8
M 458.4 78.6
Q 448.3 68.5 437.65 59.7 381.15 98.4 332.8 144.75 374.75 185.55 401.8 236.55 481.55 293.65 510.55 386.9 537.15 333.2 537.1 268.55 537.1 157.35 458.4 78.6 Z"/>
</g>
</defs>

<g transform="matrix( 1, 0, 0, 1, 0,0) ">
<use xlink:href="#Layer6_0_FILL"/>
</g>
</svg>
