
<svg xmlns="http://www.w3.org/2000/svg" version="1.1" xmlns:xlink="http://www.w3.org/1999/xlink" preserveAspectRatio="none" x="0px" y="0px" width="1708px" height="950px" viewBox="0 0 1708 950">
<defs>
<g id="Layer3_0_FILL">
<path fill="#000000" stroke="none" d="
M 554 801.5
Q 560.7052734375 828.925390625 560 857 559.4673828125 880.00703125 553.95 903.45 554 905.4 554.45 906.95 554.74921875 908.0146484375 555.45 909.05 559.72421875 915.455859375 579.05 920.75 678.05 947.55 797.4 950.4 804.4 950.55 811.5 950.65
L 914.85 950.1
Q 1032.2 946.8 1129.8 920.4 1148.5962890625 915.2509765625 1153.15 909.05 1154.05 907.8451171875 1154.4 906.6 1154.85 905.05 1154.9 903.1 1149.4248046875 879.8357421875 1148.8 857 1148.1029296875 828.7466796875 1154.85 801.15 1150.9 805.6 1132.1 811.2 1017.65 845.3 853.05 845.75 692.5 846.05 576.75 811.55 557.95 805.95 554 801.5
M 394.65 737.35
Q 320.65 740 248.3 693 248.75 761.45 214.75 822.15 208.15 833.75 213.7 844.15 220.097265625 851.2041015625 227.1 857 271.35625 893.5583984375 340.15 880.05 353.55 876.35 353.4 861.45 353.4189453125 859.2298828125 353.5 857 355.4451171875 800.414453125 394.65 737.35
M 152.85 773.25
Q 82.15 795.15 0 768.75 12.182421875 812.5337890625 8.8 857 7.0970703125 879.512890625 1.4 902.2 0.4806640625 905.7939453125 0.45 909.05 0.356640625 917.48203125 6.2 923.65 64.8 961.2 137.6 925.2 147.291796875 919.5060546875 146.5 909.05 146.3291015625 906.5603515625 145.55 903.8 139.7375 881.719921875 139.55 857 139.3103515625 818.3515625 152.85 773.25
M 191.5 33.8
Q 15.45 121 9.95 237.3
L 0.2 756.65
Q 82.15 782.9 153.05 760.45
L 161.4 311 191.5 33.8
M 625.55 33.85
Q 432.8 71.9 397.05 182.7
L 251.7 681.35
Q 323.85 728.15 398.2 725.1
L 523.9 293.45 625.55 33.85
M 1158.2 270.75
L 1064.95 33.45
Q 1003.85 76.9 887.6 91.15 881.15 91.9 874.75 92.7 848.25 95.55 821.8 91.45 705.15 77.35 643.9 33.8
L 550.65 271.1 550.65 773.25
Q 550.55 780.6 554 784.5 557.95 788.95 576.75 794.55 692.5 829.05 853.05 828.75 1017.65 828.3 1132.1 794.2 1150.9 788.6 1154.85 784.15 1158.3 780.25 1158.2 772.9
L 1158.2 270.75
M 1049.6 20.95
Q 1029 13.45 1014.95 1.75 1009.65 -1.6 1004.25 1.55 964.9 23.15 887.6 31.75 881.2 32.4 874.85 33.1 848.25 35.9 821.8 32.05 744.1 23.6 704.6 1.9 699.2 -1.25 693.9 2.1 679.85 13.8 659.25 21.3 716.05 61.2 821.8 74.4 830.55 75.35 839.3 76.3 863.65 78.2 887.6 74.05 992.95 60.75 1049.6 20.95
M 1708.85 768.4
Q 1626.7 794.8 1556 772.9 1569.6009765625 818.205859375 1569.25 857 1569.071484375 881.5263671875 1563.3 903.45 1562.466015625 906.4048828125 1562.3 909.05 1561.72109375 919.2517578125 1571.25 924.85 1644.05 960.85 1702.65 923.3 1708.3716796875 917.2603515625 1708.4 909.05 1708.4189453125 905.6375 1707.45 901.85 1701.797265625 879.3390625 1700.05 857 1696.6197265625 812.355859375 1708.85 768.4
M 1460.55 692.65
Q 1388.2 739.65 1314.2 737 1353.526171875 800.2595703125 1355.35 857 1355.4326171875 859.0541015625 1355.45 861.1 1355.3 876 1368.7 879.7 1437.1630859375 893.1435546875 1481.3 857 1488.55859375 851.0681640625 1495.15 843.8 1500.7 833.4 1494.1 821.8 1460.1 761.1 1460.55 692.65
M 1310.65 724.75
Q 1385 727.8 1457.15 681
L 1311.8 182.35
Q 1276.05 71.55 1083.3 33.5
L 1184.95 293.1 1310.65 724.75
M 1517.35 33.45
L 1547.45 310.65 1555.8 760.1
Q 1626.7 782.55 1708.65 756.3
L 1698.9 236.95
Q 1693.4 120.65 1517.35 33.45 Z"/>
</g>

<g id="Mask_2_MASK_0_FILL">
<path fill="#FFFFFF" stroke="none" d="
M 554 801.5
Q 560.7052734375 828.925390625 560 857 559.4673828125 880.00703125 553.95 903.45 554 905.4 554.45 906.95 554.74921875 908.0146484375 555.45 909.05 559.72421875 915.455859375 579.05 920.75 678.05 947.55 797.4 950.4 804.4 950.55 811.5 950.65
L 914.85 950.1
Q 1032.2 946.8 1129.8 920.4 1148.5962890625 915.2509765625 1153.15 909.05 1154.05 907.8451171875 1154.4 906.6 1154.85 905.05 1154.9 903.1 1149.4248046875 879.8357421875 1148.8 857 1148.1029296875 828.7466796875 1154.85 801.15 1150.9 805.6 1132.1 811.2 1017.65 845.3 853.05 845.75 692.5 846.05 576.75 811.55 557.95 805.95 554 801.5
M 394.65 737.35
Q 320.65 740 248.3 693 248.75 761.45 214.75 822.15 208.15 833.75 213.7 844.15 220.097265625 851.2041015625 227.1 857 271.35625 893.5583984375 340.15 880.05 353.55 876.35 353.4 861.45 353.4189453125 859.2298828125 353.5 857 355.4451171875 800.414453125 394.65 737.35
M 152.85 773.25
Q 82.15 795.15 0 768.75 12.182421875 812.5337890625 8.8 857 7.0970703125 879.512890625 1.4 902.2 0.4806640625 905.7939453125 0.45 909.05 0.356640625 917.48203125 6.2 923.65 64.8 961.2 137.6 925.2 147.291796875 919.5060546875 146.5 909.05 146.3291015625 906.5603515625 145.55 903.8 139.7375 881.719921875 139.55 857 139.3103515625 818.3515625 152.85 773.25
M 191.5 33.8
Q 15.45 121 9.95 237.3
L 0.2 756.65
Q 82.15 782.9 153.05 760.45
L 161.4 311 191.5 33.8
M 625.55 33.85
Q 432.8 71.9 397.05 182.7
L 251.7 681.35
Q 323.85 728.15 398.2 725.1
L 523.9 293.45 625.55 33.85
M 1158.2 270.75
L 1064.95 33.45
Q 1003.85 76.9 887.6 91.15 881.15 91.9 874.75 92.7 848.25 95.55 821.8 91.45 705.15 77.35 643.9 33.8
L 550.65 271.1 550.65 773.25
Q 550.55 780.6 554 784.5 557.95 788.95 576.75 794.55 692.5 829.05 853.05 828.75 1017.65 828.3 1132.1 794.2 1150.9 788.6 1154.85 784.15 1158.3 780.25 1158.2 772.9
L 1158.2 270.75
M 1049.6 20.95
Q 1029 13.45 1014.95 1.75 1009.65 -1.6 1004.25 1.55 964.9 23.15 887.6 31.75 881.2 32.4 874.85 33.1 848.25 35.9 821.8 32.05 744.1 23.6 704.6 1.9 699.2 -1.25 693.9 2.1 679.85 13.8 659.25 21.3 716.05 61.2 821.8 74.4 830.55 75.35 839.3 76.3 863.65 78.2 887.6 74.05 992.95 60.75 1049.6 20.95
M 1708.85 768.4
Q 1626.7 794.8 1556 772.9 1569.6009765625 818.205859375 1569.25 857 1569.071484375 881.5263671875 1563.3 903.45 1562.466015625 906.4048828125 1562.3 909.05 1561.72109375 919.2517578125 1571.25 924.85 1644.05 960.85 1702.65 923.3 1708.3716796875 917.2603515625 1708.4 909.05 1708.4189453125 905.6375 1707.45 901.85 1701.797265625 879.3390625 1700.05 857 1696.6197265625 812.355859375 1708.85 768.4
M 1460.55 692.65
Q 1388.2 739.65 1314.2 737 1353.526171875 800.2595703125 1355.35 857 1355.4326171875 859.0541015625 1355.45 861.1 1355.3 876 1368.7 879.7 1437.1630859375 893.1435546875 1481.3 857 1488.55859375 851.0681640625 1495.15 843.8 1500.7 833.4 1494.1 821.8 1460.1 761.1 1460.55 692.65
M 1310.65 724.75
Q 1385 727.8 1457.15 681
L 1311.8 182.35
Q 1276.05 71.55 1083.3 33.5
L 1184.95 293.1 1310.65 724.75
M 1517.35 33.45
L 1547.45 310.65 1555.8 760.1
Q 1626.7 782.55 1708.65 756.3
L 1698.9 236.95
Q 1693.4 120.65 1517.35 33.45 Z"/>
</g>

<g id="Layer2_0_FILL">
<path fill="#990000" stroke="none" d="
M 1757.15 914.6
L 1757.15 909.55 -43.8 909.55 -43.8 914.6 1757.15 914.6 Z"/>
</g>

<path id="Layer3_0_1_STROKES" stroke="#FFFFFF" stroke-width="1" stroke-linejoin="round" stroke-linecap="round" fill="none" d="
M 191.5 33.8
Q 15.45 121 9.95 237.3
L 0.2 756.65
Q 82.15 782.9 153.05 760.45
L 161.4 311 191.5 33.8 Z"/>
</defs>

<g transform="matrix( 1, 0, 0, 1, 0,0) ">
<use xlink:href="#Layer3_0_FILL"/>

<use xlink:href="#Layer3_0_1_STROKES"/>
</g>

<mask id="Mask_Mask_1">
<g transform="matrix( 1, 0, 0, 1, 0,0) ">
<use xlink:href="#Mask_2_MASK_0_FILL"/>
</g>
</mask>

<g mask="url(#Mask_Mask_1)">
<g transform="matrix( 1, 0, 0, 1, 0,0) ">
<use xlink:href="#Layer2_0_FILL"/>
</g>
</g>
</svg>
